<mxGraphModel dx="0" dy="0" grid="1" gridSize="10" guides="1" tooltips="1" connect="1" arrows="1" fold="1" page="0" pageScale="1" background="none" math="0" shadow="0">
  <root>
    <mxCell id="0" />
    <mxCell id="1" parent="0" />
    <mxCell id="node0" parent="1" vertex="1" value="&lt;p style=&quot;margin:0px;margin-top:4px;text-align:center;&quot;&gt;&lt;i&gt;&amp;lt;&amp;lt;interface&amp;gt;&amp;gt;&lt;/i&gt;&lt;br/&gt;&lt;b&gt;UserRepository&lt;/b&gt;&lt;/p&gt;&lt;hr size=&quot;1&quot;/&gt;&lt;p style=&quot;margin:0 0 0 4px;line-height:1.6;&quot;&gt;+ findEmail(String): Users&lt;br/&gt;+ findByPhone(String): Users&lt;br/&gt;+ findAllUserByIdRole(): List&amp;lt;Users&amp;gt;&lt;/p&gt;" style="verticalAlign=top;align=left;overflow=fill;fontSize=14;fontFamily=Helvetica;html=1;rounded=0;shadow=0;comic=0;labelBackgroundColor=none;strokeWidth=1;">
      <mxGeometry x="-746" y="760" width="263" height="139" as="geometry" />
    </mxCell>
    <mxCell id="node3" parent="1" vertex="1" value="&lt;p style=&quot;margin:0px;margin-top:4px;text-align:center;&quot;&gt;&lt;i&gt;&amp;lt;&amp;lt;interface&amp;gt;&amp;gt;&lt;/i&gt;&lt;br/&gt;&lt;b&gt;UserService&lt;/b&gt;&lt;/p&gt;&lt;hr size=&quot;1&quot;/&gt;&lt;p style=&quot;margin:0 0 0 4px;line-height:1.6;&quot;&gt;+ changePassword(String, String): void&lt;br/&gt;+ idUser(String): int&lt;br/&gt;+ findByEmail(String): Users&lt;br/&gt;+ findByUserNameLogin(String): Users&lt;br/&gt;+ findAllUserByIdRole(): List&amp;lt;Users&amp;gt;&lt;br/&gt;+ registerPhoneNumber(String, String): Users&lt;br/&gt;+ delete(Users): void&lt;br/&gt;+ saveImageUser(MultipartFile, String): String&lt;br/&gt;+ create(Users): Users&lt;br/&gt;+ checkOtp(String, String, String): boolean&lt;br/&gt;+ findAll(): List&amp;lt;Users&amp;gt;&lt;br/&gt;+ oauth2(CustomOAuth2User): UserDetails&lt;br/&gt;+ findById(Integer): Users&lt;br/&gt;+ update(Users): Users&lt;br/&gt;+ findByUserNamePhoneAndEmail(String): Users&lt;/p&gt;" style="verticalAlign=top;align=left;overflow=fill;fontSize=14;fontFamily=Helvetica;html=1;rounded=0;shadow=0;comic=0;labelBackgroundColor=none;strokeWidth=1;">
      <mxGeometry x="68" y="616" width="337" height="399" as="geometry" />
    </mxCell>
    <mxCell id="node1" parent="1" vertex="1" value="&lt;p style=&quot;margin:0px;margin-top:4px;text-align:center;&quot;&gt;&lt;b&gt;UserServiceImpl&lt;/b&gt;&lt;/p&gt;&lt;hr size=&quot;1&quot;/&gt;&lt;p style=&quot;margin:0 0 0 4px;line-height:1.6;&quot;&gt;+ UserServiceImpl(): &lt;/p&gt;&lt;hr size=&quot;1&quot;/&gt;&lt;p style=&quot;margin:0 0 0 4px;line-height:1.6;&quot;&gt;+ findByEmail(String): Users&lt;br/&gt;+ create(Users): Users&lt;br/&gt;+ checkOtp(String, String, String): boolean&lt;br/&gt;+ oauth2(CustomOAuth2User): UserDetails&lt;br/&gt;+ saveImageUser(MultipartFile, String): String&lt;br/&gt;+ idUser(String): int&lt;br/&gt;+ findByUserNamePhoneAndEmail(String): Users&lt;br/&gt;+ update(Users): Users&lt;br/&gt;+ registerPhoneNumber(String, String): Users&lt;br/&gt;+ findByUserNameLogin(String): Users&lt;br/&gt;+ findById(Integer): Users&lt;br/&gt;+ changePassword(String, String): void&lt;br/&gt;+ findAll(): List&amp;lt;Users&amp;gt;&lt;br/&gt;+ delete(Users): void&lt;br/&gt;+ findAllUserByIdRole(): List&amp;lt;Users&amp;gt;&lt;/p&gt;" style="verticalAlign=top;align=left;overflow=fill;fontSize=14;fontFamily=Helvetica;html=1;rounded=0;shadow=0;comic=0;labelBackgroundColor=none;strokeWidth=1;">
      <mxGeometry x="-376" y="785" width="337" height="424" as="geometry" />
    </mxCell>
    <mxCell id="node2" parent="1" vertex="1" value="&lt;p style=&quot;margin:0px;margin-top:4px;text-align:center;&quot;&gt;&lt;b&gt;Users&lt;/b&gt;&lt;/p&gt;&lt;hr size=&quot;1&quot;/&gt;&lt;p style=&quot;margin:0 0 0 4px;line-height:1.6;&quot;&gt;+ Users(int, String, String, String, String, int, boolean, boolean, boolean, int, Date, Date, Date, String, List&amp;lt;Address&amp;gt;, List&amp;lt;Review&amp;gt;, List&amp;lt;Authority&amp;gt;): &lt;br/&gt;+ Users(): &lt;/p&gt;&lt;hr size=&quot;1&quot;/&gt;&lt;p style=&quot;margin:0 0 0 4px;line-height:1.6;&quot;&gt; status: boolean&lt;br/&gt; image: String&lt;br/&gt; phone: String&lt;br/&gt; gender: int&lt;br/&gt; authorities: List&amp;lt;Authority&amp;gt;&lt;br/&gt; addresses: List&amp;lt;Address&amp;gt;&lt;br/&gt; date_insert: Date&lt;br/&gt; signup: boolean&lt;br/&gt; password: String&lt;br/&gt; reviews: List&amp;lt;Review&amp;gt;&lt;br/&gt; otp: int&lt;br/&gt; email: String&lt;br/&gt; id: int&lt;br/&gt; fullName: String&lt;br/&gt; timeOtp: Date&lt;br/&gt; date_update: Date&lt;br/&gt; isPasswordReset: boolean&lt;/p&gt;" style="verticalAlign=top;align=left;overflow=fill;fontSize=14;fontFamily=Helvetica;html=1;rounded=0;shadow=0;comic=0;labelBackgroundColor=none;strokeWidth=1;">
      <mxGeometry x="-431" y="85" width="392" height="496" as="geometry" />
    </mxCell>
    <mxCell id="edge4" edge="1" value="" parent="1" source="node0" target="node2" style="html=1;rounded=1;edgeStyle=orthogonalEdgeStyle;dashed=1;startArrow=none;endArrow=openThin;endSize=12;strokeColor=#595959;exitX=0.878;exitY=0.000;exitDx=0;exitDy=0;entryX=0.019;entryY=1.000;entryDx=0;entryDy=0;">
      <mxGeometry width="50" height="50" relative="1" as="geometry">
        <Array as="points">
          <mxPoint x="-515" y="671" />
          <mxPoint x="-423" y="671" />
        </Array>
      </mxGeometry>
    </mxCell>
    <mxCell id="edge1" edge="1" value="" parent="1" source="node3" target="node2" style="html=1;rounded=1;edgeStyle=orthogonalEdgeStyle;dashed=1;startArrow=none;endArrow=openThin;endSize=12;strokeColor=#595959;exitX=0.500;exitY=0.000;exitDx=0;exitDy=0;entryX=1.000;entryY=0.500;entryDx=0;entryDy=0;">
      <mxGeometry width="50" height="50" relative="1" as="geometry">
        <Array as="points">
          <mxPoint x="236" y="333" />
        </Array>
      </mxGeometry>
    </mxCell>
    <mxCell id="edge3" edge="1" value="" parent="1" source="node1" target="node0" style="html=1;rounded=1;edgeStyle=orthogonalEdgeStyle;dashed=0;startArrow=diamondThinstartSize=12;endArrow=openThin;endSize=12;strokeColor=#595959;exitX=0.000;exitY=0.420;exitDx=0;exitDy=0;entryX=0.983;entryY=1.000;entryDx=0;entryDy=0;">
      <mxGeometry width="50" height="50" relative="1" as="geometry">
        <Array as="points">
          <mxPoint x="-487" y="963" />
        </Array>
      </mxGeometry>
    </mxCell>
    <mxCell id="label18" parent="edge3" vertex="1" connectable="0" value="1" style="edgeLabel;resizable=0;html=1;align=left;verticalAlign=top;strokeColor=default;">
      <mxGeometry x="-407" y="958" as="geometry" />
    </mxCell>
    <mxCell id="label22" parent="edge3" vertex="1" connectable="0" value="1" style="edgeLabel;resizable=0;html=1;align=left;verticalAlign=top;strokeColor=default;">
      <mxGeometry x="-498" y="879" as="geometry" />
    </mxCell>
    <mxCell id="label23" parent="edge3" vertex="1" connectable="0" value="userRepository" style="edgeLabel;resizable=0;html=1;align=left;verticalAlign=top;strokeColor=default;">
      <mxGeometry x="-487" y="879" as="geometry" />
    </mxCell>
    <mxCell id="edge0" edge="1" value="" parent="1" source="node1" target="node3" style="html=1;rounded=1;edgeStyle=orthogonalEdgeStyle;dashed=1;startArrow=none;endArrow=block;endSize=12;strokeColor=#008200;exitX=1.000;exitY=0.500;exitDx=0;exitDy=0;entryX=0.000;entryY=0.954;entryDx=0;entryDy=0;">
      <mxGeometry width="50" height="50" relative="1" as="geometry">
        <Array as="points" />
      </mxGeometry>
    </mxCell>
    <mxCell id="edge2" edge="1" value="" parent="1" source="node1" target="node2" style="html=1;rounded=1;edgeStyle=orthogonalEdgeStyle;dashed=1;startArrow=none;endArrow=openThin;endSize=12;strokeColor=#595959;exitX=0.418;exitY=0.000;exitDx=0;exitDy=0;entryX=0.500;entryY=1.000;entryDx=0;entryDy=0;">
      <mxGeometry width="50" height="50" relative="1" as="geometry">
        <Array as="points" />
      </mxGeometry>
    </mxCell>
    <mxCell id="label14" parent="edge2" vertex="1" connectable="0" value="«create»" style="edgeLabel;resizable=0;html=1;align=left;verticalAlign=top;strokeColor=default;">
      <mxGeometry x="-270" y="673" as="geometry" />
    </mxCell>
  </root>
</mxGraphModel>